<?xml version="1.0" encoding="UTF-8"?> <svg xmlns="http://www.w3.org/2000/svg" width="74" height="40" viewBox="0 0 74 40" fill="none"><path fill-rule="evenodd" clip-rule="evenodd" d="M9.9508 21.7383C9.9508 21.7383 9.9508 24.2409 11.7207 26.0135C12.5653 26.86 13.6416 27.4365 14.8134 27.6703C15.9852 27.9041 17.1999 27.7846 18.3039 27.327C19.4079 26.8694 20.3516 26.0942 21.0158 25.0994C21.6799 24.1046 22.0345 22.9349 22.0349 21.7383C22.0373 23.5669 21.889 25.3925 21.5917 27.1967C21.1086 29.6878 19.3624 33.835 15.9953 33.835C12.6282 33.835 11.2831 29.5743 10.5449 27.3439C9.80679 25.1135 9.9508 21.7383 9.9508 21.7383Z" fill="url(#paint0_linear_379_4552)"></path><path fill-rule="evenodd" clip-rule="evenodd" d="M15.9902 9.58677C15.9902 9.58677 22.0288 10.2772 22.0288 21.738C22.0288 33.1988 15.9902 33.8341 15.9902 33.8341C17.6004 33.8897 19.2058 33.6268 20.7145 33.0605C22.2232 32.4942 23.6056 31.6356 24.7827 30.5338C26.7223 28.7424 28.2134 25.9793 28.2187 21.7139C28.2239 17.4485 26.7608 14.6244 24.7735 12.8779C20.3347 8.99667 15.9902 9.58677 15.9902 9.58677Z" fill="url(#paint1_linear_379_4552)"></path><path fill-rule="evenodd" clip-rule="evenodd" d="M14.8119 6.29432C16.712 6.23789 20.3302 6.19531 21.8763 6.19531C23.4224 6.19531 28.2128 6.35604 28.2128 11.0858V21.4436C28.2128 21.4436 28.0668 12.6765 20.4738 12.6765C12.8809 12.6765 12.6615 6.35703 14.8119 6.29432Z" fill="#355070"></path><path fill-rule="evenodd" clip-rule="evenodd" d="M7.37428 30.3125C3.76562 26.4772 3.91226 23.3801 3.76562 21.7398C3.76562 18.4936 11.3079 20.6095 10.9823 21.7398C9.06773 28.3772 13.1901 33.836 15.9911 33.836C16.0814 33.8798 10.9823 34.1488 7.37428 30.3125Z" fill="#355070"></path><path d="M9.56835 18.0345C11.195 18.0345 12.5136 16.7138 12.5136 15.0846C12.5136 13.4555 11.195 12.1348 9.56835 12.1348C7.9417 12.1348 6.62305 13.4555 6.62305 15.0846C6.62305 16.7138 7.9417 18.0345 9.56835 18.0345Z" fill="#355070"></path><path fill-rule="evenodd" clip-rule="evenodd" d="M69.6462 15.6705C69.6462 14.2553 69.1559 13.3065 68.1887 12.6873C67.4684 12.2286 64.2324 12.1233 64.2324 12.1233C64.1734 12.1213 64.1146 12.1313 64.0594 12.1526C64.0043 12.1739 63.954 12.206 63.9116 12.2472C63.8691 12.2883 63.8354 12.3376 63.8123 12.392C63.7892 12.4465 63.7774 12.5051 63.7773 12.5642V28.897C63.7773 30.3122 64.2677 31.261 65.2348 31.8802C65.9552 32.3389 69.1911 32.4442 69.1911 32.4442C69.2502 32.4462 69.309 32.4362 69.3641 32.4149C69.4192 32.3936 69.4695 32.3615 69.512 32.3203C69.5544 32.2792 69.5882 32.2299 69.6112 32.1755C69.6343 32.121 69.6462 32.0625 69.6462 32.0033V15.6705Z" fill="#355070"></path><path fill-rule="evenodd" clip-rule="evenodd" d="M54.3657 12.8001C53.3725 13.4153 52.9082 14.3559 52.9082 15.7635V17.8606C52.9134 19.4197 52.9197 21.0325 52.8729 22.624C52.8261 24.2154 52.7437 27.5019 52.4646 29.1537C52.1387 31.0755 50.2489 34.9462 49.3496 35.9316C49.3496 36.599 53.1174 36.1247 54.972 34.9085C56.615 33.8283 57.6916 32.1712 58.3599 29.694C58.6723 28.524 58.923 25.6418 58.9263 23.9184C58.9336 20.4355 58.9263 12.5523 58.9263 12.5523C58.9263 12.4918 58.9138 12.432 58.8898 12.3766C58.8657 12.3212 58.8305 12.2713 58.7864 12.23C58.7423 12.1888 58.6902 12.157 58.6333 12.1368C58.5764 12.1166 58.516 12.1082 58.4558 12.1124C58.4558 12.1124 55.1032 12.3397 54.3696 12.7955L54.3657 12.8001Z" fill="#355070"></path><path fill-rule="evenodd" clip-rule="evenodd" d="M46.2874 14.1105C47.0313 14.8344 47.5913 15.7262 47.9208 16.7112C48.3049 17.902 48.4614 19.1547 48.3822 20.4036L47.9772 30.7717C47.9693 30.9925 47.8884 31.2045 47.7472 31.3744C47.6061 31.5443 47.4126 31.6624 47.1972 31.7103C46.3862 31.8908 45.4461 32.069 44.4058 32.2383C43.278 32.4175 42.1377 32.5058 40.9958 32.5024C40.6834 32.5024 40.3783 32.4971 40.0672 32.4855C38.8493 32.4463 37.6389 32.2776 36.4566 31.9822C35.4555 31.7394 34.5099 31.3076 33.6704 30.71C32.9043 30.1444 32.2965 29.3907 31.9058 28.5215C31.4749 27.4981 31.2901 26.3876 31.3664 25.2796C31.3681 24.1922 31.6881 23.1292 32.2867 22.2221C32.8405 21.4413 33.5709 20.8028 34.4181 20.3587C35.2979 19.9023 36.2483 19.5981 37.2293 19.4587C38.0203 19.3403 38.8189 19.28 39.6187 19.2782C39.8164 19.2782 40.0112 19.2782 40.2007 19.2897L42.4767 19.3795C42.4763 18.9882 42.3618 18.6055 42.1472 18.2785C41.9345 17.9695 41.6482 17.7186 41.3141 17.5485C40.9511 17.3649 40.5632 17.2352 40.1628 17.1637C39.729 17.0858 39.2903 17.0391 38.8499 17.0241C38.1401 17.0058 37.43 17.0473 36.7271 17.1482C36.1352 17.2282 35.5486 17.3441 34.9707 17.4953C34.7433 17.5544 34.5023 17.5303 34.2909 17.4275C34.0796 17.3247 33.9117 17.1498 33.8174 16.9343C33.7498 16.7821 33.6856 16.6349 33.6279 16.4953C33.3982 15.7621 33.2368 15.0092 33.1458 14.2462C33.1353 14.0564 33.129 13.8541 33.128 13.6392C33.1268 13.4181 33.1992 13.2028 33.3338 13.0276C33.4685 12.8523 33.6577 12.727 33.8714 12.6716C34.8418 12.4195 35.8269 12.2279 36.821 12.098C37.8993 11.9505 38.9879 11.8916 40.0758 11.9217C41.2822 11.9551 42.4776 12.1623 43.6251 12.5369C44.6165 12.8607 45.5252 13.3977 46.2874 14.1105ZM42.4059 27.7822L42.5828 23.2231L40.2049 23.1323C40.1249 23.1323 40.0435 23.1271 39.9644 23.1271C39.2209 23.108 38.4854 23.2854 37.832 23.6413C37.512 23.8061 37.2425 24.0546 37.0522 24.3605C36.8619 24.6664 36.7578 25.0182 36.7512 25.3786C36.7082 25.8515 36.8259 26.3252 37.0853 26.7228C37.3197 27.0489 37.6314 27.3115 37.9922 27.4872C38.3543 27.664 38.7401 27.7873 39.1376 27.8532C39.5028 27.9176 39.8717 27.9584 40.2422 27.9753C40.5799 27.9799 40.9177 27.967 41.2542 27.9367C41.5831 27.9167 41.9106 27.877 42.2348 27.8179L42.4059 27.7822Z" fill="#355070"></path><path d="M55.9547 9.64883C57.5768 9.64883 58.8917 8.33183 58.8917 6.70723C58.8917 5.08263 57.5768 3.76562 55.9547 3.76562C54.3326 3.76562 53.0176 5.08263 53.0176 6.70723C53.0176 8.33183 54.3326 9.64883 55.9547 9.64883Z" fill="#355070"></path><path d="M66.6734 9.64883C68.2955 9.64883 69.6105 8.33183 69.6105 6.70723C69.6105 5.08263 68.2955 3.76562 66.6734 3.76562C65.0513 3.76562 63.7363 5.08263 63.7363 6.70723C63.7363 8.33183 65.0513 9.64883 66.6734 9.64883Z" fill="#355070"></path><defs><linearGradient id="paint0_linear_379_4552" x1="10.2176" y1="26.0326" x2="16.7856" y2="27.3751" gradientUnits="userSpaceOnUse"><stop stop-color="#942900"></stop><stop offset="0.16" stop-color="#AE3514"></stop><stop offset="0.36" stop-color="#C94129"></stop><stop offset="0.57" stop-color="#DD4A39"></stop><stop offset="0.79" stop-color="#E94F42"></stop><stop offset="1" stop-color="#ED5145"></stop></linearGradient><linearGradient id="paint1_linear_379_4552" x1="22.1045" y1="16.5736" x2="22.1045" y2="12.8577" gradientUnits="userSpaceOnUse"><stop stop-color="#FF7A6B"></stop><stop offset="0.2" stop-color="#FD7667"></stop><stop offset="0.39" stop-color="#F96B5B"></stop><stop offset="0.58" stop-color="#F15947"></stop><stop offset="0.77" stop-color="#E63F2C"></stop><stop offset="0.96" stop-color="#D71F08"></stop><stop offset="1" stop-color="#D41700"></stop></linearGradient></defs></svg> 