<svg id="_0_Color" data-name="0_Color" xmlns="http://www.w3.org/2000/svg" xmlns:xlink="http://www.w3.org/1999/xlink" width="199.93" height="98.385" viewBox="0 0 199.93 98.385">
  <defs>
    <linearGradient id="linear-gradient" x1="0.023" y1="0.355" x2="0.566" y2="0.466" gradientUnits="objectBoundingBox">
      <stop offset="0" stop-color="#942900"/>
      <stop offset="0.16" stop-color="#ae3514"/>
      <stop offset="0.36" stop-color="#c94129"/>
      <stop offset="0.57" stop-color="#dd4a39"/>
      <stop offset="0.79" stop-color="#e94f42"/>
      <stop offset="1" stop-color="#ed5145"/>
    </linearGradient>
    <linearGradient id="linear-gradient-2" x1="0.5" y1="0.289" x2="0.5" y2="0.136" gradientUnits="objectBoundingBox">
      <stop offset="0" stop-color="#ff7a6b"/>
      <stop offset="0.2" stop-color="#fd7667"/>
      <stop offset="0.39" stop-color="#f96b5b"/>
      <stop offset="0.58" stop-color="#f15947"/>
      <stop offset="0.77" stop-color="#e63f2c"/>
      <stop offset="0.96" stop-color="#d71f08"/>
      <stop offset="1" stop-color="#d41700"/>
    </linearGradient>
  </defs>
  <path id="Path" d="M18.774,54.461s0,7.583,5.371,12.954a18.333,18.333,0,0,0,31.3-12.954A100.773,100.773,0,0,1,54.1,71c-1.466,7.548-6.765,20.114-16.983,20.114s-14.3-12.91-16.54-19.668S18.774,54.461,18.774,54.461Z" fill-rule="evenodd" fill="url(#linear-gradient)"/>
  <path id="Path-2" data-name="Path" d="M37.1,17.643s18.325,2.092,18.325,36.818S37.1,91.112,37.1,91.112a37.2,37.2,0,0,0,26.682-10c5.886-5.428,10.411-13.8,10.427-26.724S69.785,32.907,63.754,27.615C50.284,15.855,37.1,17.643,37.1,17.643Z" fill-rule="evenodd" fill="url(#linear-gradient-2)"/>
  <path id="Path-3" data-name="Path" d="M33.526,7.662c5.766-.171,16.746-.3,21.438-.3s19.229.487,19.229,14.818V53.564S73.75,27,50.708,27,27,7.852,33.526,7.662Z" fill="#355070" fill-rule="evenodd"/>
  <path id="Path-4" data-name="Path" d="M10.951,80.439C0,68.818.445,59.434,0,54.464c0-9.836,22.888-3.425,21.9,0-5.81,20.111,6.7,36.651,15.2,36.651C37.374,91.248,21.9,92.063,10.951,80.439Z" fill="#355070" fill-rule="evenodd"/>
  <circle id="Oval" cx="8.938" cy="8.938" r="8.938" transform="translate(8.676 25.359)" fill="#355070"/>
  <path id="Path-5" data-name="Path" d="M199.93,36.076c0-4.288-1.488-7.163-4.423-9.039-2.186-1.39-12.006-1.709-12.006-1.709a1.337,1.337,0,0,0-1.381,1.336V76.152c0,4.288,1.488,7.163,4.423,9.039,2.186,1.39,12.006,1.709,12.006,1.709a1.337,1.337,0,0,0,1.381-1.336V36.076Z" fill="#355070" fill-rule="evenodd"/>
  <path id="Path-6" data-name="Path" d="M153.555,27.378c-3.014,1.864-4.423,4.714-4.423,8.979v6.354c.016,4.724.035,9.611-.107,14.433s-.392,14.78-1.239,19.785c-.989,5.823-6.724,17.551-9.453,20.537,0,2.022,11.434.585,17.062-3.1,4.986-3.273,8.253-8.294,10.281-15.8.948-3.545,1.709-12.278,1.719-17.5.022-10.553,0-34.439,0-34.439a1.337,1.337,0,0,0-1.428-1.333s-10.174.689-12.4,2.07Z" fill="#355070" fill-rule="evenodd"/>
  <path id="Shape" d="M129.043,31.349A19.722,19.722,0,0,1,134,39.229a30.171,30.171,0,0,1,1.4,11.188l-1.229,31.415a3.024,3.024,0,0,1-2.367,2.844c-2.461.547-5.314,1.087-8.471,1.6a64.8,64.8,0,0,1-10.348.8c-.948,0-1.874-.016-2.818-.051A52.2,52.2,0,0,1,99.21,85.5a24.578,24.578,0,0,1-8.455-3.855A16.812,16.812,0,0,1,85.4,75.014a21.478,21.478,0,0,1-1.637-9.823,16.852,16.852,0,0,1,2.793-9.264,18.4,18.4,0,0,1,6.468-5.646,26.7,26.7,0,0,1,8.531-2.727,49.813,49.813,0,0,1,7.251-.547c.6,0,1.191,0,1.766.035l6.907.272a6.085,6.085,0,0,0-1-3.336,6.828,6.828,0,0,0-2.528-2.212,12.7,12.7,0,0,0-3.494-1.166,27.978,27.978,0,0,0-3.984-.423,38.445,38.445,0,0,0-6.442.376,44.805,44.805,0,0,0-5.33,1.052,3,3,0,0,1-3.5-1.7c-.205-.461-.4-.907-.575-1.33a37.7,37.7,0,0,1-1.463-6.815c-.032-.575-.051-1.188-.054-1.839a3.011,3.011,0,0,1,2.256-2.932,73.6,73.6,0,0,1,8.951-1.738,60.626,60.626,0,0,1,9.877-.534,38.152,38.152,0,0,1,10.771,1.864A21.69,21.69,0,0,1,129.043,31.349ZM117.264,72.774l.537-13.814-7.216-.275c-.243,0-.49-.016-.73-.016a12.858,12.858,0,0,0-6.471,1.558,6.045,6.045,0,0,0-3.28,5.264,6.387,6.387,0,0,0,1.014,4.073,7.352,7.352,0,0,0,2.752,2.316,12.638,12.638,0,0,0,3.476,1.109,26.141,26.141,0,0,0,3.352.37,29.683,29.683,0,0,0,3.071-.117,25.065,25.065,0,0,0,2.976-.36Z" fill="#355070" fill-rule="evenodd"/>
  <circle id="Oval-2" data-name="Oval" cx="8.913" cy="8.913" r="8.913" transform="translate(149.463)" fill="#355070"/>
  <circle id="Oval-3" data-name="Oval" cx="8.913" cy="8.913" r="8.913" transform="translate(181.994)" fill="#355070"/>
</svg>
